<svg xmlns="http://www.w3.org/2000/svg" aria-hidden="true" style="position:absolute;width:0;height:0;overflow:hidden">
  <defs>
    <symbol id="icon-dumbbell" viewBox="0 0 32 32">
      <path d="M7.36 9.143H5.44c-.532 0-.96.459-.96 1.029v4.457h-.96c-.176 0-.32.154-.32.343v2.057c0 .188.144.343.32.343h.96v4.457c0 .57.428 1.028.96 1.028h1.92c.532 0 .96-.459.96-1.028V10.172c0-.57-.428-1.029-.96-1.029zm21.12 5.486h-.96v-4.457c0-.57-.428-1.029-.96-1.029h-1.92c-.532 0-.96.459-.96 1.029v11.657c0 .57.428 1.028.96 1.028h1.92c.532 0 .96-.459.96-1.028v-4.457h.96c.176 0 .32-.154.32-.343v-2.057c0-.189-.144-.343-.32-.343zM21.44 6.4h-1.92c-.532 0-.96.459-.96 1.029v7.2h-5.12v-7.2c0-.57-.428-1.029-.96-1.029h-1.92c-.532 0-.96.459-.96 1.029v17.143c0 .57.428 1.029.96 1.029h1.92c.532 0 .96-.459.96-1.029v-7.2h5.12v7.2c0 .57.428 1.029.96 1.029h1.92c.532 0 .96-.459.96-1.029V7.429c0-.57-.428-1.029-.96-1.029z"/>
    </symbol>
    <symbol id="icon-man" viewBox="0 0 32 32">
      <path d="M29.647 9.451c-.419-.501-1.166-.567-1.667-.149l-3.282 2.757-1.509-3.739c-.054-.14-.135-.258-.229-.362-.308-.686-.844-1.275-1.582-1.617-.321-.146-.652-.224-.982-.262-.073-.038-.139-.088-.222-.114l-5.776-1.61c-.324-.088-.65-.031-.917.125-.317.107-.589.338-.719.672l-2.175 5.592c-.236.608.066 1.294.676 1.534.606.236 1.294-.068 1.532-.678l1.837-4.722 2.63.731c-.064.104-.133.201-.185.312l-3.372 7.309c-.049.107-.075.217-.109.328l-4.098 6.871-6.859 2.294c-.776.58-.941 1.674-.367 2.45.577.778 1.674.943 2.448.369l7.018-2.417c.215-.156.371-.36.489-.581.088-.093.189-.168.256-.284l2.443-4.096 4.337 3.696-4.64 5.23c-.639.721-.575 1.832.149 2.469.723.643 1.83.575 2.473-.149l5.791-6.524c.18-.201.288-.433.36-.676.043-.132.043-.269.054-.405 0-.069.026-.132.021-.196-.016-.478-.21-.943-.601-1.274l-3.991-3.403c.288-.274.532-.6.709-.983l2.585-5.599.828 2.206c.035.196.101.388.239.549.125.149.284.248.454.317.017.009.038.01.059.016.107.038.217.075.329.08.133.012.269-.005.405-.043.004-.002.005-.002.005-.002.036-.009.073-.002.109-.017.192-.073.34-.196.466-.34l4.71-3.998c.501-.421.289-1.166-.132-1.667zM23.689 6.602c1.823 0 3.301-1.478 3.301-3.301S25.512 0 23.689 0c-1.823 0-3.301 1.478-3.301 3.301s1.478 3.301 3.301 3.301z"/>
    </symbol>
    <symbol id="icon-trash" viewBox="0 0 32 32" fill="none">
      <path stroke-linecap="round" stroke-linejoin="round" stroke-width="2.6" d="M21.333 8V6.933c0-1.493 0-2.24-.291-2.811-.256-.502-.664-.91-1.165-1.165-.57-.291-1.317-.291-2.811-.291h-2.133c-1.493 0-2.24 0-2.811.291-.502.256-.91.664-1.165 1.165-.291.57-.291 1.317-.291 2.811V8m2.667 7.333V22m5.334-6.667V22M4 8h24m-2.667 0v14.933c0 2.24 0 3.36-.436 4.216-.384.753-.995 1.365-1.748 1.748-.856.436-1.976.436-4.216.436h-5.867c-2.24 0-3.36 0-4.216-.436-.753-.384-1.365-.995-1.748-1.748-.436-.856-.436-1.976-.436-4.216V8"/>
    </symbol>
    <symbol id="icon-arrow" viewBox="0 0 32 32">
      <path stroke-linecap="round" stroke-linejoin="round" stroke-width="2.6" d="m15 28 13-13m0 0L15 2m13 13H2"/>
    </symbol>
    <symbol id="icon-menu" viewBox="0 0 64 32" fill="none"><path stroke-linecap="round" stroke-linejoin="round" stroke-width="4" d="M56 20.667H8M56 10H8"/></symbol>
    <symbol id="icon-x" viewBox="0 0 32 32">
      <path stroke-linecap="round" stroke-linejoin="round" stroke-width="2.6667" d="M22.667 9.333 9.334 22.666M9.333 9.333l13.333 13.333"/>
    </symbol>
    <symbol id="icon-search" viewBox="0 0 32 32" fill="none">
      <path stroke-linecap="round" stroke-linejoin="round" stroke-width="2.6667" d="M14.667 25.333c5.891 0 10.667-4.776 10.667-10.667S20.558 3.999 14.667 3.999 4 8.775 4 14.666s4.776 10.667 10.667 10.667zM28 28l-5.8-5.8"/>
    </symbol>
    <symbol id="icon-heart" viewBox="0 0 32 32" fill="none">
      <path stroke-linecap="round" stroke-linejoin="round" stroke-width="2.4" d="M27.787 6.147c-.681-.681-1.49-1.222-2.38-1.591s-1.844-.559-2.807-.559c-.963 0-1.917.19-2.807.559s-1.699.909-2.38 1.591L16 7.56l-1.413-1.413C13.211 4.771 11.346 3.999 9.4 3.999s-3.811.773-5.187 2.148c-1.376 1.376-2.148 3.241-2.148 5.187s.773 3.811 2.148 5.187L16 28.308l11.787-11.787c.681-.681 1.222-1.49 1.591-2.38s.559-1.844.559-2.807c0-.963-.19-1.917-.559-2.807s-.909-1.699-1.591-2.38z"/>
    </symbol>
    <symbol id="icon-star" viewBox="0 0 32 32">
      <path d="M14.478 2.283c.479-1.474 2.564-1.474 3.043 0l2.43 7.478c.214.659.828 1.106 1.522 1.106h7.863c1.55 0 2.194 1.983.94 2.894l-6.361 4.622c-.561.407-.795 1.13-.581 1.789l2.43 7.478c.479 1.474-1.208 2.7-2.462 1.789l-6.361-4.622c-.561-.407-1.32-.407-1.881 0l-6.361 4.622c-1.254.911-2.941-.315-2.462-1.789l2.43-7.478c.214-.659-.02-1.381-.581-1.789l-6.361-4.622c-1.254-.911-.61-2.894.94-2.894h7.863c.693 0 1.308-.446 1.522-1.106l2.43-7.478z"/>
    </symbol>
    <symbol id="icon-facebook" viewBox="0 0 32 32">
      <path d="M19.52 4.64h.96v3.6h-1.2c-.48 0-.96 0-1.2.24s-.24.48-.24 1.04v1.28h2.64v3.04h-2.64v13.2h-4.08V13.76H11.6v-3.04h2.16V9.68c0-1.76.24-3.04.72-3.6.72-1.04 2.16-1.52 4.32-1.52.24.08.48.08.72.08z"/>
    </symbol>
    <symbol id="icon-youtube" viewBox="0 0 32 32">
      <path d="M24.24 6c-1.36-.08-4.16-.16-8.4-.16h-.56c-4.08 0-6.8.08-8.16.24-1.84.16-3.12.64-3.84 1.28-.64.56-1.12 1.6-1.28 2.96-.08.88-.16 2.72-.16 5.52v.4c0 2.64.08 4.48.24 5.36.24 1.28.64 2.24 1.44 2.8.8.64 2.16 1.04 4.08 1.2 1.36.08 4.16.16 8.4.16h.56c4.08 0 6.8-.08 8.16-.24 1.84-.16 3.12-.64 3.84-1.28.64-.56 1.12-1.6 1.28-2.96.08-.88.16-2.72.16-5.52v-.4c0-2.64-.08-4.48-.24-5.36-.24-1.28-.64-2.24-1.44-2.8-.8-.64-2.16-1.04-4.08-1.2zm-3.12 9.84-8.8 5.28V10.56l8.8 5.28z"/>
    </symbol>
    <symbol id="icon-instagram" viewBox="0 0 32 32">
      <path d="M28.717 10.756c-.016-1.074-.215-2.14-.596-3.145-.667-1.716-2.024-3.073-3.743-3.737-.994-.373-2.044-.573-3.108-.596-1.368-.061-1.801-.078-5.273-.078s-3.917 0-5.274.078c-1.062.023-2.112.223-3.106.596-1.719.664-3.078 2.021-3.743 3.737-.374.992-.576 2.041-.596 3.101-.061 1.367-.08 1.8-.08 5.265s0 3.909.08 5.265c.021 1.062.222 2.109.596 3.104.667 1.714 2.024 3.071 3.744 3.735.989.386 2.04.605 3.106.639 1.369.061 1.803.08 5.274.08s3.916 0 5.274-.08c1.062-.021 2.113-.221 3.108-.595 1.719-.666 3.076-2.022 3.743-3.737.374-.994.574-2.041.596-3.104.061-1.365.08-1.798.08-5.265-.003-3.466-.003-3.906-.082-5.264zM15.99 22.531c-3.631 0-6.572-2.936-6.572-6.561s2.941-6.561 6.572-6.561c3.628 0 6.572 2.936 6.572 6.561s-2.944 6.561-6.572 6.561zm6.833-11.835c-.849 0-1.532-.684-1.532-1.53s.684-1.53 1.532-1.53c.846 0 1.531.684 1.531 1.53s-.685 1.53-1.531 1.53z"/>
      <path d="M15.992 19.976c2.211 0 4.004-1.793 4.004-4.004s-1.793-4.004-4.004-4.004c-2.211 0-4.004 1.793-4.004 4.004s1.793 4.004 4.004 4.004z"/>
    </symbol>
  </defs>
</svg>
