<svg xmlns="http://www.w3.org/2000/svg" aria-hidden="true" style="position:absolute;width:0;height:0;overflow:hidden">
  <defs>
    <symbol id="icon-dumbbell" viewBox="0 0 32 32">
      <path d="M7.36 9.143H5.44c-.532 0-.96.459-.96 1.029v4.457h-.96c-.176 0-.32.154-.32.343v2.057c0 .188.144.343.32.343h.96v4.457c0 .57.428 1.028.96 1.028h1.92c.532 0 .96-.459.96-1.028V10.172c0-.57-.428-1.029-.96-1.029zm21.12 5.486h-.96v-4.457c0-.57-.428-1.029-.96-1.029h-1.92c-.532 0-.96.459-.96 1.029v11.657c0 .57.428 1.028.96 1.028h1.92c.532 0 .96-.459.96-1.028v-4.457h.96c.176 0 .32-.154.32-.343v-2.057c0-.189-.144-.343-.32-.343zM21.44 6.4h-1.92c-.532 0-.96.459-.96 1.029v7.2h-5.12v-7.2c0-.57-.428-1.029-.96-1.029h-1.92c-.532 0-.96.459-.96 1.029v17.143c0 .57.428 1.029.96 1.029h1.92c.532 0 .96-.459.96-1.029v-7.2h5.12v7.2c0 .57.428 1.029.96 1.029h1.92c.532 0 .96-.459.96-1.029V7.429c0-.57-.428-1.029-.96-1.029z"/>
    </symbol>
    <symbol id="icon-man" viewBox="0 0 32 32">
      <path d="M29.647 9.451c-.419-.501-1.166-.567-1.667-.149l-3.282 2.757-1.509-3.739c-.054-.14-.135-.258-.229-.362-.308-.686-.844-1.275-1.582-1.617-.321-.146-.652-.224-.982-.262-.073-.038-.139-.088-.222-.114l-5.776-1.61c-.324-.088-.65-.031-.917.125-.317.107-.589.338-.719.672l-2.175 5.592c-.236.608.066 1.294.676 1.534.606.236 1.294-.068 1.532-.678l1.837-4.722 2.63.731c-.064.104-.133.201-.185.312l-3.372 7.309c-.049.107-.075.217-.109.328l-4.098 6.871-6.859 2.294c-.776.58-.941 1.674-.367 2.45.577.778 1.674.943 2.448.369l7.018-2.417c.215-.156.371-.36.489-.581.088-.093.189-.168.256-.284l2.443-4.096 4.337 3.696-4.64 5.23c-.639.721-.575 1.832.149 2.469.723.643 1.83.575 2.473-.149l5.791-6.524c.18-.201.288-.433.36-.676.043-.132.043-.269.054-.405 0-.069.026-.132.021-.196-.016-.478-.21-.943-.601-1.274l-3.991-3.403c.288-.274.532-.6.709-.983l2.585-5.599.828 2.206c.035.196.101.388.239.549.125.149.284.248.454.317.017.009.038.01.059.016.107.038.217.075.329.08.133.012.269-.005.405-.043.004-.002.005-.002.005-.002.036-.009.073-.002.109-.017.192-.073.34-.196.466-.34l4.71-3.998c.501-.421.289-1.166-.132-1.667zM23.689 6.602c1.823 0 3.301-1.478 3.301-3.301S25.512 0 23.689 0c-1.823 0-3.301 1.478-3.301 3.301s1.478 3.301 3.301 3.301z"/>
    </symbol>
    <symbol id="icon-trash" viewBox="0 0 32 32" fill="none">
      <path stroke-linecap="round" stroke-linejoin="round" stroke-width="2.6" d="M21.333 8V6.933c0-1.493 0-2.24-.291-2.811-.256-.502-.664-.91-1.165-1.165-.57-.291-1.317-.291-2.811-.291h-2.133c-1.493 0-2.24 0-2.811.291-.502.256-.91.664-1.165 1.165-.291.57-.291 1.317-.291 2.811V8m2.667 7.333V22m5.334-6.667V22M4 8h24m-2.667 0v14.933c0 2.24 0 3.36-.436 4.216-.384.753-.995 1.365-1.748 1.748-.856.436-1.976.436-4.216.436h-5.867c-2.24 0-3.36 0-4.216-.436-.753-.384-1.365-.995-1.748-1.748-.436-.856-.436-1.976-.436-4.216V8"/>
    </symbol>
    <symbol id="icon-arrow" viewBox="0 0 32 32">
      <path stroke-linecap="round" stroke-linejoin="round" stroke-width="2.6" d="m15 28 13-13m0 0L15 2m13 13H2"/>
    </symbol>
    <symbol id="icon-menu" viewBox="0 0 64 32" fill="none"><path stroke-linecap="round" stroke-linejoin="round" stroke-width="4" d="M56 20.667H8M56 10H8"/></symbol>
    <symbol id="icon-x" viewBox="0 0 32 32">
    <path stroke-linejoin="round" stroke-linecap="round" stroke-miterlimit="4" stroke-width="2.6667" d="M22.667 9.333l-13.333 13.333M9.333 9.333l13.333 13.333"></path>
    </symbol>
    <symbol id="icon-search" viewBox="0 0 32 32" fill="none">
      <path stroke-linecap="round" stroke-linejoin="round" stroke-width="2.6667" d="M14.667 25.333c5.891 0 10.667-4.776 10.667-10.667S20.558 3.999 14.667 3.999 4 8.775 4 14.666s4.776 10.667 10.667 10.667zM28 28l-5.8-5.8"/>
    </symbol>
    <symbol id="icon-heart" viewBox="0 0 32 32" fill="none">
      <path stroke-linecap="round" stroke-linejoin="round" stroke-width="2.4" d="M27.787 6.147c-.681-.681-1.49-1.222-2.38-1.591s-1.844-.559-2.807-.559c-.963 0-1.917.19-2.807.559s-1.699.909-2.38 1.591L16 7.56l-1.413-1.413C13.211 4.771 11.346 3.999 9.4 3.999s-3.811.773-5.187 2.148c-1.376 1.376-2.148 3.241-2.148 5.187s.773 3.811 2.148 5.187L16 28.308l11.787-11.787c.681-.681 1.222-1.49 1.591-2.38s.559-1.844.559-2.807c0-.963-.19-1.917-.559-2.807s-.909-1.699-1.591-2.38z"/>
    </symbol>
    <symbol id="icon-star" viewBox="0 0 32 32">
      <path d="M14.478 2.283c.479-1.474 2.564-1.474 3.043 0l2.43 7.478c.214.659.828 1.106 1.522 1.106h7.863c1.55 0 2.194 1.983.94 2.894l-6.361 4.622c-.561.407-.795 1.13-.581 1.789l2.43 7.478c.479 1.474-1.208 2.7-2.462 1.789l-6.361-4.622c-.561-.407-1.32-.407-1.881 0l-6.361 4.622c-1.254.911-2.941-.315-2.462-1.789l2.43-7.478c.214-.659-.02-1.381-.581-1.789l-6.361-4.622c-1.254-.911-.61-2.894.94-2.894h7.863c.693 0 1.308-.446 1.522-1.106l2.43-7.478z"/>
    </symbol>
    <symbol id="icon-facebook" viewBox="0 0 32 32">
      <path d="M19.52 4.64h.96v3.6h-1.2c-.48 0-.96 0-1.2.24s-.24.48-.24 1.04v1.28h2.64v3.04h-2.64v13.2h-4.08V13.76H11.6v-3.04h2.16V9.68c0-1.76.24-3.04.72-3.6.72-1.04 2.16-1.52 4.32-1.52.24.08.48.08.72.08z"/>
    </symbol>
    <symbol id="icon-youtube" viewBox="0 0 32 32">
      <path d="M24.24 6c-1.36-.08-4.16-.16-8.4-.16h-.56c-4.08 0-6.8.08-8.16.24-1.84.16-3.12.64-3.84 1.28-.64.56-1.12 1.6-1.28 2.96-.08.88-.16 2.72-.16 5.52v.4c0 2.64.08 4.48.24 5.36.24 1.28.64 2.24 1.44 2.8.8.64 2.16 1.04 4.08 1.2 1.36.08 4.16.16 8.4.16h.56c4.08 0 6.8-.08 8.16-.24 1.84-.16 3.12-.64 3.84-1.28.64-.56 1.12-1.6 1.28-2.96.08-.88.16-2.72.16-5.52v-.4c0-2.64-.08-4.48-.24-5.36-.24-1.28-.64-2.24-1.44-2.8-.8-.64-2.16-1.04-4.08-1.2zm-3.12 9.84-8.8 5.28V10.56l8.8 5.28z"/>
    </symbol>
    <symbol id="icon-instagram" viewBox="0 0 32 32">
      <path d="M28.717 10.756c-.016-1.074-.215-2.14-.596-3.145-.667-1.716-2.024-3.073-3.743-3.737-.994-.373-2.044-.573-3.108-.596-1.368-.061-1.801-.078-5.273-.078s-3.917 0-5.274.078c-1.062.023-2.112.223-3.106.596-1.719.664-3.078 2.021-3.743 3.737-.374.992-.576 2.041-.596 3.101-.061 1.367-.08 1.8-.08 5.265s0 3.909.08 5.265c.021 1.062.222 2.109.596 3.104.667 1.714 2.024 3.071 3.744 3.735.989.386 2.04.605 3.106.639 1.369.061 1.803.08 5.274.08s3.916 0 5.274-.08c1.062-.021 2.113-.221 3.108-.595 1.719-.666 3.076-2.022 3.743-3.737.374-.994.574-2.041.596-3.104.061-1.365.08-1.798.08-5.265-.003-3.466-.003-3.906-.082-5.264zM15.99 22.531c-3.631 0-6.572-2.936-6.572-6.561s2.941-6.561 6.572-6.561c3.628 0 6.572 2.936 6.572 6.561s-2.944 6.561-6.572 6.561zm6.833-11.835c-.849 0-1.532-.684-1.532-1.53s.684-1.53 1.532-1.53c.846 0 1.531.684 1.531 1.53s-.685 1.53-1.531 1.53z"/>
      <path d="M15.992 19.976c2.211 0 4.004-1.793 4.004-4.004s-1.793-4.004-4.004-4.004c-2.211 0-4.004 1.793-4.004 4.004s1.793 4.004 4.004 4.004z"/>
    </symbol>
    <symbol id="icon-sun" viewBox="0 0 32 32">
    <path d="M14.5 4v-2c0-0.398 0.158-0.779 0.439-1.061s0.663-0.439 1.061-0.439c0.398 0 0.779 0.158 1.061 0.439s0.439 0.663 0.439 1.061v2c0 0.398-0.158 0.779-0.439 1.061s-0.663 0.439-1.061 0.439c-0.398 0-0.779-0.158-1.061-0.439s-0.439-0.663-0.439-1.061zM24.5 16c0 1.681-0.498 3.325-1.433 4.722s-2.262 2.487-3.815 3.131c-1.553 0.643-3.262 0.812-4.911 0.484s-3.163-1.137-4.352-2.326c-1.189-1.189-1.998-2.703-2.326-4.352s-0.16-3.358 0.484-4.911 1.733-2.881 3.131-3.815c1.398-0.934 3.041-1.433 4.722-1.433 2.254 0.002 4.414 0.899 6.008 2.492s2.49 3.754 2.492 6.008zM21.5 16c0-1.088-0.323-2.151-0.927-3.056s-1.463-1.61-2.468-2.026c-1.005-0.416-2.111-0.525-3.178-0.313s-2.047 0.736-2.816 1.505c-0.769 0.769-1.293 1.749-1.505 2.816s-0.103 2.173 0.313 3.178c0.416 1.005 1.121 1.864 2.026 2.468s1.968 0.927 3.056 0.927c1.458-0.002 2.856-0.582 3.887-1.613s1.611-2.429 1.613-3.887zM6.439 8.561c0.14 0.14 0.305 0.25 0.487 0.326s0.378 0.114 0.575 0.114c0.197 0 0.393-0.039 0.575-0.114s0.348-0.186 0.487-0.326c0.14-0.14 0.25-0.305 0.326-0.487s0.114-0.378 0.114-0.575c0-0.197-0.039-0.393-0.114-0.575s-0.186-0.348-0.326-0.487l-1.5-1.5c-0.282-0.282-0.664-0.44-1.063-0.44s-0.781 0.158-1.063 0.44c-0.282 0.282-0.44 0.664-0.44 1.063s0.158 0.781 0.44 1.063l1.5 1.5zM6.439 23.436l-1.5 1.5c-0.14 0.14-0.25 0.305-0.326 0.487s-0.114 0.378-0.114 0.575c0 0.197 0.039 0.393 0.114 0.575s0.186 0.348 0.326 0.488c0.282 0.282 0.664 0.44 1.063 0.44 0.197 0 0.393-0.039 0.575-0.114s0.348-0.186 0.487-0.326l1.5-1.5c0.282-0.282 0.44-0.664 0.44-1.063s-0.158-0.781-0.44-1.063c-0.282-0.282-0.664-0.44-1.063-0.44s-0.781 0.158-1.063 0.44zM24.5 9c0.197 0 0.392-0.039 0.574-0.114s0.348-0.186 0.487-0.325l1.5-1.5c0.14-0.14 0.25-0.305 0.326-0.487s0.114-0.378 0.114-0.575c0-0.197-0.039-0.393-0.114-0.575s-0.186-0.348-0.326-0.487c-0.14-0.14-0.305-0.25-0.488-0.326s-0.378-0.114-0.575-0.114c-0.197 0-0.393 0.039-0.575 0.114s-0.348 0.186-0.487 0.326l-1.5 1.5c-0.211 0.21-0.355 0.478-0.413 0.769s-0.029 0.594 0.085 0.869c0.114 0.275 0.307 0.51 0.555 0.674s0.539 0.252 0.837 0.251zM25.561 23.439c-0.282-0.282-0.664-0.44-1.063-0.44s-0.781 0.158-1.063 0.44c-0.282 0.282-0.44 0.664-0.44 1.063s0.158 0.781 0.44 1.063l1.5 1.5c0.282 0.282 0.664 0.44 1.063 0.44s0.781-0.158 1.063-0.44c0.282-0.282 0.44-0.664 0.44-1.063s-0.158-0.781-0.44-1.063l-1.5-1.5zM5.5 16c0-0.398-0.158-0.779-0.439-1.061s-0.663-0.439-1.061-0.439h-2c-0.398 0-0.779 0.158-1.061 0.439s-0.439 0.663-0.439 1.061c0 0.398 0.158 0.779 0.439 1.061s0.663 0.439 1.061 0.439h2c0.398 0 0.779-0.158 1.061-0.439s0.439-0.663 0.439-1.061zM16 26.5c-0.398 0-0.779 0.158-1.061 0.439s-0.439 0.663-0.439 1.061v2c0 0.398 0.158 0.779 0.439 1.061s0.663 0.439 1.061 0.439c0.398 0 0.779-0.158 1.061-0.439s0.439-0.663 0.439-1.061v-2c0-0.398-0.158-0.779-0.439-1.061s-0.663-0.439-1.061-0.439zM30 14.5h-2c-0.398 0-0.779 0.158-1.061 0.439s-0.439 0.663-0.439 1.061c0 0.398 0.158 0.779 0.439 1.061s0.663 0.439 1.061 0.439h2c0.398 0 0.779-0.158 1.061-0.439s0.439-0.663 0.439-1.061c0-0.398-0.158-0.779-0.439-1.061s-0.663-0.439-1.061-0.439z"></path>
    </symbol>
    <symbol id="icon-moon" viewBox="0 0 32 32">
    <path d="M29.546 17.425c-0.192-0.193-0.434-0.33-0.698-0.396s-0.542-0.059-0.802 0.021c-1.82 0.549-3.755 0.595-5.598 0.132s-3.527-1.418-4.871-2.762c-1.344-1.345-2.298-3.028-2.761-4.872s-0.416-3.779 0.134-5.598c0.080-0.261 0.088-0.538 0.022-0.803s-0.202-0.506-0.395-0.699c-0.193-0.193-0.435-0.329-0.699-0.395s-0.542-0.058-0.803 0.022c-2.737 0.841-5.139 2.524-6.864 4.81-1.508 2.005-2.428 4.39-2.656 6.889s0.245 5.011 1.365 7.256c1.12 2.245 2.844 4.133 4.978 5.453s4.593 2.019 7.102 2.018c2.929 0.009 5.78-0.944 8.116-2.711 2.284-1.727 3.966-4.13 4.805-6.867 0.079-0.26 0.086-0.537 0.020-0.8s-0.202-0.504-0.395-0.696zM23.311 23.392c-2.022 1.522-4.525 2.263-7.050 2.086s-4.9-1.26-6.69-3.050c-1.79-1.79-2.873-4.165-3.050-6.69s0.564-5.028 2.086-7.050c0.801-1.059 1.793-1.959 2.926-2.652-0.023 0.32-0.034 0.641-0.034 0.964 0.004 3.579 1.428 7.011 3.958 9.542s5.962 3.954 9.542 3.958c0.323 0 0.644-0.011 0.964-0.034-0.693 1.133-1.593 2.126-2.652 2.926z"></path>
    </symbol>
  </defs>
</svg>
